<svg width="1440" height="952" viewBox="0 0 1440 952" fill="none" xmlns="http://www.w3.org/2000/svg">
<path d="M520.4 853.5L504.5 881.003L488.6 853.5L520.4 853.5Z" stroke="#F7DD4B" stroke-width="3"/>
<path d="M973 855.5L909 791.5" stroke="#F7DD4B" stroke-width="3"/>
<path d="M1023 750L987 786" stroke="white" stroke-width="3"/>
<g opacity="0.2">
<circle cx="1418" cy="949" r="3" fill="white"/>
<circle cx="1388" cy="949" r="3" fill="white"/>
<circle cx="1358" cy="949" r="3" fill="white"/>
<circle cx="1328" cy="949" r="3" fill="white"/>
<circle cx="1298" cy="949" r="3" fill="white"/>
<circle cx="1268" cy="949" r="3" fill="white"/>
<circle cx="1238" cy="949" r="3" fill="white"/>
<circle cx="1208" cy="949" r="3" fill="white"/>
<circle cx="1178" cy="949" r="3" fill="white"/>
<circle cx="1148" cy="949" r="3" fill="white"/>
<circle cx="1118" cy="949" r="3" fill="white"/>
<circle cx="1088" cy="949" r="3" fill="white"/>
<circle cx="1418" cy="919" r="3" fill="white"/>
<circle cx="1388" cy="919" r="3" fill="white"/>
<circle cx="1358" cy="919" r="3" fill="white"/>
<circle cx="1328" cy="919" r="3" fill="white"/>
<circle cx="1298" cy="919" r="3" fill="white"/>
<circle cx="1268" cy="919" r="3" fill="white"/>
<circle cx="1238" cy="919" r="3" fill="white"/>
<circle cx="1208" cy="919" r="3" fill="white"/>
<circle cx="1178" cy="919" r="3" fill="white"/>
<circle cx="1148" cy="919" r="3" fill="white"/>
<circle cx="1118" cy="919" r="3" fill="white"/>
<circle cx="1088" cy="919" r="3" fill="white"/>
<circle cx="1418" cy="889" r="3" fill="white"/>
<circle cx="1388" cy="889" r="3" fill="white"/>
<circle cx="1358" cy="889" r="3" fill="white"/>
<circle cx="1328" cy="889" r="3" fill="white"/>
<circle cx="1298" cy="889" r="3" fill="white"/>
<circle cx="1268" cy="889" r="3" fill="white"/>
<circle cx="1238" cy="889" r="3" fill="white"/>
<circle cx="1208" cy="889" r="3" fill="white"/>
<circle cx="1178" cy="889" r="3" fill="white"/>
<circle cx="1148" cy="889" r="3" fill="white"/>
<circle cx="1118" cy="889" r="3" fill="white"/>
<circle cx="1088" cy="889" r="3" fill="white"/>
<circle cx="1418" cy="859" r="3" fill="white"/>
<circle cx="1388" cy="859" r="3" fill="white"/>
<circle cx="1358" cy="859" r="3" fill="white"/>
<circle cx="1328" cy="859" r="3" fill="white"/>
<circle cx="1298" cy="859" r="3" fill="white"/>
<circle cx="1268" cy="859" r="3" fill="white"/>
<circle cx="1238" cy="859" r="3" fill="white"/>
<circle cx="1208" cy="859" r="3" fill="white"/>
<circle cx="1178" cy="859" r="3" fill="white"/>
<circle cx="1148" cy="859" r="3" fill="white"/>
<circle cx="1118" cy="859" r="3" fill="white"/>
<circle cx="1088" cy="859" r="3" fill="white"/>
<circle cx="1418" cy="829" r="3" fill="white"/>
<circle cx="1388" cy="829" r="3" fill="white"/>
<circle cx="1358" cy="829" r="3" fill="white"/>
<circle cx="1328" cy="829" r="3" fill="white"/>
<circle cx="1298" cy="829" r="3" fill="white"/>
<circle cx="1268" cy="829" r="3" fill="white"/>
<circle cx="1238" cy="829" r="3" fill="white"/>
<circle cx="1208" cy="829" r="3" fill="white"/>
<circle cx="1178" cy="829" r="3" fill="white"/>
<circle cx="1148" cy="829" r="3" fill="white"/>
<circle cx="1118" cy="829" r="3" fill="white"/>
<circle cx="1088" cy="829" r="3" fill="white"/>
<circle cx="1418" cy="799" r="3" fill="white"/>
<circle cx="1388" cy="799" r="3" fill="white"/>
<circle cx="1358" cy="799" r="3" fill="white"/>
<circle cx="1328" cy="799" r="3" fill="white"/>
<circle cx="1298" cy="799" r="3" fill="white"/>
<circle cx="1268" cy="799" r="3" fill="white"/>
<circle cx="1238" cy="799" r="3" fill="white"/>
<circle cx="1208" cy="799" r="3" fill="white"/>
<circle cx="1178" cy="799" r="3" fill="white"/>
<circle cx="1148" cy="799" r="3" fill="white"/>
<circle cx="1118" cy="799" r="3" fill="white"/>
<circle cx="1088" cy="799" r="3" fill="white"/>
<circle cx="1418" cy="769" r="3" fill="white"/>
<circle cx="1388" cy="769" r="3" fill="white"/>
<circle cx="1358" cy="769" r="3" fill="white"/>
<circle cx="1328" cy="769" r="3" fill="white"/>
<circle cx="1298" cy="769" r="3" fill="white"/>
<circle cx="1268" cy="769" r="3" fill="white"/>
<circle cx="1238" cy="769" r="3" fill="white"/>
<circle cx="1208" cy="769" r="3" fill="white"/>
<circle cx="1178" cy="769" r="3" fill="white"/>
<circle cx="1148" cy="769" r="3" fill="white"/>
<circle cx="1118" cy="769" r="3" fill="white"/>
<circle cx="1088" cy="769" r="3" fill="white"/>
<circle cx="1418" cy="739" r="3" fill="white"/>
<circle cx="1388" cy="739" r="3" fill="white"/>
<circle cx="1358" cy="739" r="3" fill="white"/>
<circle cx="1328" cy="739" r="3" fill="white"/>
<circle cx="1298" cy="739" r="3" fill="white"/>
<circle cx="1268" cy="739" r="3" fill="white"/>
<circle cx="1238" cy="739" r="3" fill="white"/>
<circle cx="1208" cy="739" r="3" fill="white"/>
<circle cx="1178" cy="739" r="3" fill="white"/>
<circle cx="1148" cy="739" r="3" fill="white"/>
<circle cx="1118" cy="739" r="3" fill="white"/>
<circle cx="1088" cy="739" r="3" fill="white"/>
<circle cx="1418" cy="709" r="3" fill="white"/>
<circle cx="1388" cy="709" r="3" fill="white"/>
<circle cx="1358" cy="709" r="3" fill="white"/>
<circle cx="1328" cy="709" r="3" fill="white"/>
<circle cx="1298" cy="709" r="3" fill="white"/>
<circle cx="1268" cy="709" r="3" fill="white"/>
<circle cx="1238" cy="709" r="3" fill="white"/>
<circle cx="1208" cy="709" r="3" fill="white"/>
<circle cx="1178" cy="709" r="3" fill="white"/>
<circle cx="1148" cy="709" r="3" fill="white"/>
<circle cx="1118" cy="709" r="3" fill="white"/>
<circle cx="1088" cy="709" r="3" fill="white"/>
<circle cx="1418" cy="679" r="3" fill="white"/>
<circle cx="1388" cy="679" r="3" fill="white"/>
<circle cx="1358" cy="679" r="3" fill="white"/>
<circle cx="1328" cy="679" r="3" fill="white"/>
<circle cx="1298" cy="679" r="3" fill="white"/>
<circle cx="1268" cy="679" r="3" fill="white"/>
<circle cx="1238" cy="679" r="3" fill="white"/>
<circle cx="1208" cy="679" r="3" fill="white"/>
<circle cx="1178" cy="679" r="3" fill="white"/>
<circle cx="1148" cy="679" r="3" fill="white"/>
<circle cx="1118" cy="679" r="3" fill="white"/>
<circle cx="1088" cy="679" r="3" fill="white"/>
<circle cx="1418" cy="649" r="3" fill="white"/>
<circle cx="1388" cy="649" r="3" fill="white"/>
<circle cx="1358" cy="649" r="3" fill="white"/>
<circle cx="1328" cy="649" r="3" fill="white"/>
<circle cx="1298" cy="649" r="3" fill="white"/>
<circle cx="1268" cy="649" r="3" fill="white"/>
<circle cx="1238" cy="649" r="3" fill="white"/>
<circle cx="1208" cy="649" r="3" fill="white"/>
<circle cx="1178" cy="649" r="3" fill="white"/>
<circle cx="1148" cy="649" r="3" fill="white"/>
<circle cx="1118" cy="649" r="3" fill="white"/>
<circle cx="1088" cy="649" r="3" fill="white"/>
<circle cx="1418" cy="619" r="3" fill="white"/>
<circle cx="1388" cy="619" r="3" fill="white"/>
<circle cx="1358" cy="619" r="3" fill="white"/>
<circle cx="1328" cy="619" r="3" fill="white"/>
<circle cx="1298" cy="619" r="3" fill="white"/>
<circle cx="1268" cy="619" r="3" fill="white"/>
<circle cx="1238" cy="619" r="3" fill="white"/>
<circle cx="1208" cy="619" r="3" fill="white"/>
<circle cx="1178" cy="619" r="3" fill="white"/>
<circle cx="1148" cy="619" r="3" fill="white"/>
<circle cx="1118" cy="619" r="3" fill="white"/>
<circle cx="1088" cy="619" r="3" fill="white"/>
<circle cx="1418" cy="589" r="3" fill="white"/>
<circle cx="1388" cy="589" r="3" fill="white"/>
<circle cx="1358" cy="589" r="3" fill="white"/>
<circle cx="1328" cy="589" r="3" fill="white"/>
<circle cx="1298" cy="589" r="3" fill="white"/>
<circle cx="1268" cy="589" r="3" fill="white"/>
<circle cx="1238" cy="589" r="3" fill="white"/>
<circle cx="1208" cy="589" r="3" fill="white"/>
<circle cx="1178" cy="589" r="3" fill="white"/>
<circle cx="1148" cy="589" r="3" fill="white"/>
<circle cx="1118" cy="589" r="3" fill="white"/>
<circle cx="1088" cy="589" r="3" fill="white"/>
<circle cx="1418" cy="559" r="3" fill="white"/>
<circle cx="1388" cy="559" r="3" fill="white"/>
<circle cx="1358" cy="559" r="3" fill="white"/>
<circle cx="1328" cy="559" r="3" fill="white"/>
<circle cx="1298" cy="559" r="3" fill="white"/>
<circle cx="1268" cy="559" r="3" fill="white"/>
<circle cx="1238" cy="559" r="3" fill="white"/>
<circle cx="1208" cy="559" r="3" fill="white"/>
<circle cx="1178" cy="559" r="3" fill="white"/>
<circle cx="1148" cy="559" r="3" fill="white"/>
<circle cx="1118" cy="559" r="3" fill="white"/>
<circle cx="1088" cy="559" r="3" fill="white"/>
<circle cx="1418" cy="529" r="3" fill="white"/>
<circle cx="1388" cy="529" r="3" fill="white"/>
<circle cx="1358" cy="529" r="3" fill="white"/>
<circle cx="1328" cy="529" r="3" fill="white"/>
<circle cx="1298" cy="529" r="3" fill="white"/>
<circle cx="1268" cy="529" r="3" fill="white"/>
<circle cx="1238" cy="529" r="3" fill="white"/>
<circle cx="1208" cy="529" r="3" fill="white"/>
<circle cx="1178" cy="529" r="3" fill="white"/>
<circle cx="1148" cy="529" r="3" fill="white"/>
<circle cx="1118" cy="529" r="3" fill="white"/>
<circle cx="1088" cy="529" r="3" fill="white"/>
<circle cx="1418" cy="499" r="3" fill="white"/>
<circle cx="1388" cy="499" r="3" fill="white"/>
<circle cx="1358" cy="499" r="3" fill="white"/>
<circle cx="1328" cy="499" r="3" fill="white"/>
<circle cx="1298" cy="499" r="3" fill="white"/>
<circle cx="1268" cy="499" r="3" fill="white"/>
<circle cx="1238" cy="499" r="3" fill="white"/>
<circle cx="1208" cy="499" r="3" fill="white"/>
<circle cx="1178" cy="499" r="3" fill="white"/>
<circle cx="1148" cy="499" r="3" fill="white"/>
<circle cx="1118" cy="499" r="3" fill="white"/>
<circle cx="1088" cy="499" r="3" fill="white"/>
<circle cx="1418" cy="469" r="3" fill="white"/>
<circle cx="1388" cy="469" r="3" fill="white"/>
<circle cx="1358" cy="469" r="3" fill="white"/>
<circle cx="1328" cy="469" r="3" fill="white"/>
<circle cx="1298" cy="469" r="3" fill="white"/>
<circle cx="1268" cy="469" r="3" fill="white"/>
<circle cx="1238" cy="469" r="3" fill="white"/>
<circle cx="1208" cy="469" r="3" fill="white"/>
<circle cx="1178" cy="469" r="3" fill="white"/>
<circle cx="1148" cy="469" r="3" fill="white"/>
<circle cx="1118" cy="469" r="3" fill="white"/>
<circle cx="1088" cy="469" r="3" fill="white"/>
<circle cx="1418" cy="439" r="3" fill="white"/>
<circle cx="1388" cy="439" r="3" fill="white"/>
<circle cx="1358" cy="439" r="3" fill="white"/>
<circle cx="1328" cy="439" r="3" fill="white"/>
<circle cx="1298" cy="439" r="3" fill="white"/>
<circle cx="1268" cy="439" r="3" fill="white"/>
<circle cx="1238" cy="439" r="3" fill="white"/>
<circle cx="1208" cy="439" r="3" fill="white"/>
<circle cx="1178" cy="439" r="3" fill="white"/>
<circle cx="1148" cy="439" r="3" fill="white"/>
<circle cx="1118" cy="439" r="3" fill="white"/>
<circle cx="1088" cy="439" r="3" fill="white"/>
<circle cx="1418" cy="409" r="3" fill="white"/>
<circle cx="1388" cy="409" r="3" fill="white"/>
<circle cx="1358" cy="409" r="3" fill="white"/>
<circle cx="1328" cy="409" r="3" fill="white"/>
<circle cx="1298" cy="409" r="3" fill="white"/>
<circle cx="1268" cy="409" r="3" fill="white"/>
<circle cx="1238" cy="409" r="3" fill="white"/>
<circle cx="1208" cy="409" r="3" fill="white"/>
<circle cx="1178" cy="409" r="3" fill="white"/>
<circle cx="1148" cy="409" r="3" fill="white"/>
<circle cx="1118" cy="409" r="3" fill="white"/>
<circle cx="1088" cy="409" r="3" fill="white"/>
<circle cx="1418" cy="379" r="3" fill="white"/>
<circle cx="1388" cy="379" r="3" fill="white"/>
<circle cx="1358" cy="379" r="3" fill="white"/>
<circle cx="1328" cy="379" r="3" fill="white"/>
<circle cx="1298" cy="379" r="3" fill="white"/>
<circle cx="1268" cy="379" r="3" fill="white"/>
<circle cx="1238" cy="379" r="3" fill="white"/>
<circle cx="1208" cy="379" r="3" fill="white"/>
<circle cx="1178" cy="379" r="3" fill="white"/>
<circle cx="1148" cy="379" r="3" fill="white"/>
<circle cx="1118" cy="379" r="3" fill="white"/>
<circle cx="1088" cy="379" r="3" fill="white"/>
</g>
<path opacity="0.2" d="M1097.88 270.469L1111.98 256.168L1117.05 275.605L1097.88 270.469Z" stroke="white" stroke-width="3"/>
<path d="M1386.6 26.5L1402.5 -1.00301L1418.4 26.5H1386.6Z" stroke="#F7DD4B" stroke-width="3"/>
<path d="M195 364.5C195 360.753 193.973 357.077 192.03 353.873C190.088 350.669 187.304 348.058 183.982 346.325C180.66 344.592 176.926 343.802 173.187 344.042C169.447 344.282 165.845 345.543 162.772 347.686L164.976 350.847C167.472 349.106 170.397 348.083 173.434 347.888C176.47 347.693 179.502 348.334 182.2 349.741C184.897 351.149 187.158 353.269 188.735 355.871C190.312 358.473 191.146 361.457 191.146 364.5H195Z" fill="white"/>
<path opacity="0.2" d="M175.304 383.802C174.335 387.421 174.375 391.237 175.422 394.835C176.469 398.433 178.482 401.675 181.243 404.209C184.003 406.743 187.405 408.472 191.08 409.208C194.754 409.944 198.559 409.659 202.083 408.384L200.771 404.76C197.91 405.796 194.82 406.027 191.836 405.43C188.853 404.832 186.09 403.428 183.849 401.371C181.607 399.313 179.973 396.68 179.122 393.759C178.272 390.837 178.239 387.738 179.027 384.799L175.304 383.802Z" fill="white"/>
<g opacity="0.2">
<circle cx="211" cy="215" r="3" fill="white"/>
<circle cx="181" cy="215" r="3" fill="white"/>
<circle cx="151" cy="215" r="3" fill="white"/>
<circle cx="121" cy="215" r="3" fill="white"/>
<circle cx="91" cy="215" r="3" fill="white"/>
<circle cx="61" cy="215" r="3" fill="white"/>
<circle cx="31" cy="215" r="3" fill="white"/>
<circle cx="1" cy="215" r="3" fill="white"/>
<circle cx="211" cy="185" r="3" fill="white"/>
<circle cx="181" cy="185" r="3" fill="white"/>
<circle cx="151" cy="185" r="3" fill="white"/>
<circle cx="121" cy="185" r="3" fill="white"/>
<circle cx="91" cy="185" r="3" fill="white"/>
<circle cx="61" cy="185" r="3" fill="white"/>
<circle cx="31" cy="185" r="3" fill="white"/>
<circle cx="1" cy="185" r="3" fill="white"/>
<circle cx="211" cy="155" r="3" fill="white"/>
<circle cx="181" cy="155" r="3" fill="white"/>
<circle cx="151" cy="155" r="3" fill="white"/>
<circle cx="121" cy="155" r="3" fill="white"/>
<circle cx="91" cy="155" r="3" fill="white"/>
<circle cx="61" cy="155" r="3" fill="white"/>
<circle cx="31" cy="155" r="3" fill="white"/>
<circle cx="1" cy="155" r="3" fill="white"/>
<circle cx="211" cy="125" r="3" fill="white"/>
<circle cx="181" cy="125" r="3" fill="white"/>
<circle cx="151" cy="125" r="3" fill="white"/>
<circle cx="121" cy="125" r="3" fill="white"/>
<circle cx="91" cy="125" r="3" fill="white"/>
<circle cx="61" cy="125" r="3" fill="white"/>
<circle cx="31" cy="125" r="3" fill="white"/>
<circle cx="1" cy="125" r="3" fill="white"/>
<circle cx="211" cy="95" r="3" fill="white"/>
<circle cx="181" cy="95" r="3" fill="white"/>
<circle cx="151" cy="95" r="3" fill="white"/>
<circle cx="121" cy="95" r="3" fill="white"/>
<circle cx="91" cy="95" r="3" fill="white"/>
<circle cx="61" cy="95" r="3" fill="white"/>
<circle cx="31" cy="95" r="3" fill="white"/>
<circle cx="1" cy="95" r="3" fill="white"/>
<circle cx="211" cy="65" r="3" fill="white"/>
<circle cx="181" cy="65" r="3" fill="white"/>
<circle cx="151" cy="65" r="3" fill="white"/>
<circle cx="121" cy="65" r="3" fill="white"/>
<circle cx="91" cy="65" r="3" fill="white"/>
<circle cx="61" cy="65" r="3" fill="white"/>
<circle cx="31" cy="65" r="3" fill="white"/>
<circle cx="1" cy="65" r="3" fill="white"/>
<circle cx="211" cy="35" r="3" fill="white"/>
<circle cx="181" cy="35" r="3" fill="white"/>
<circle cx="151" cy="35" r="3" fill="white"/>
<circle cx="121" cy="35" r="3" fill="white"/>
<circle cx="91" cy="35" r="3" fill="white"/>
<circle cx="61" cy="35" r="3" fill="white"/>
<circle cx="31" cy="35" r="3" fill="white"/>
<circle cx="1" cy="35" r="3" fill="white"/>
<circle cx="211" cy="5" r="3" fill="white"/>
<circle cx="181" cy="5" r="3" fill="white"/>
<circle cx="151" cy="5" r="3" fill="white"/>
<circle cx="121" cy="5" r="3" fill="white"/>
<circle cx="91" cy="5" r="3" fill="white"/>
<circle cx="61" cy="5" r="3" fill="white"/>
<circle cx="31" cy="5" r="3" fill="white"/>
<circle cx="1" cy="5" r="3" fill="white"/>
</g>
</svg>
