<svg width="120" height="120" viewBox="0 0 120 120" fill="none" xmlns="http://www.w3.org/2000/svg">
<rect x="1" y="1" width="118" height="118" rx="59" stroke="white" stroke-width="2"/>
<g clip-path="url(#clip0_904_24920)">
<path d="M76.9298 67.4405C75.0798 67.4405 73.2698 67.8505 71.6198 68.6405L65.6998 62.1505C65.8098 61.4005 65.6598 60.6405 65.2698 59.9905C67.7498 57.1905 76.5198 47.2805 82.0498 40.9305C89.2298 32.6905 85.3398 28.5405 85.1698 28.3605C84.9398 28.1205 84.6098 27.9905 84.2798 28.0005C83.9398 28.0105 83.6298 28.1605 83.4098 28.4105L60.2598 55.1805C59.8198 55.0005 59.3498 54.9105 58.8798 54.9305L35.9598 28.4205C35.7398 28.1605 35.4298 28.0105 35.0898 28.0005C34.7498 27.9905 34.4298 28.1205 34.1998 28.3605C34.0298 28.5305 30.1398 32.6905 37.3198 40.9305C42.1698 46.4905 49.8098 55.1405 53.6298 59.4505C53.3598 60.2705 53.4198 61.1605 53.8098 61.9405L47.7498 68.6705C46.0898 67.8705 44.2498 67.4505 42.3898 67.4505C35.5698 67.4505 30.0098 73.0005 30.0098 79.8305C30.0098 86.6605 35.5598 92.2105 42.3898 92.2105C49.2198 92.2105 54.7698 86.6605 54.7698 79.8305C54.7698 77.4305 54.0998 75.1405 52.8198 73.1505L58.5698 66.7705C59.0698 67.0605 59.6398 67.2305 60.2298 67.2305C60.5298 67.2305 60.8198 67.1805 61.1098 67.1105L66.5698 73.1005C65.2698 75.1005 64.5798 77.4105 64.5798 79.8305C64.5798 86.6505 70.1298 92.2105 76.9598 92.2105C83.7898 92.2105 89.3398 86.6605 89.3398 79.8305C89.3398 73.0005 83.7898 67.4505 76.9598 67.4505L76.9298 67.4405ZM83.9698 31.4405C84.1298 32.8705 83.6598 35.4405 80.2498 39.3505C74.8398 45.5505 66.3298 55.1705 63.6498 58.2105L62.1398 56.7005L83.9698 31.4405ZM35.4198 31.4605L56.5898 55.9505L55.0798 57.4705C51.1598 53.0505 43.8298 44.7405 39.1198 39.3505C35.7498 35.4905 35.2598 32.9105 35.4198 31.4605ZM50.3698 72.2405C49.9798 72.6705 49.9598 73.3105 50.3098 73.7705C51.6398 75.5105 52.3498 77.6005 52.3498 79.8105C52.3498 85.3105 47.8798 89.7805 42.3698 89.7805C36.8598 89.7805 32.3898 85.3105 32.3898 79.8105C32.3898 74.3105 36.8598 69.8305 42.3698 69.8305C44.1398 69.8305 45.8798 70.3005 47.3898 71.1905C47.8798 71.4805 48.5098 71.3805 48.8898 70.9605L55.3798 63.7605L56.7598 65.1405L50.3698 72.2405ZM59.5598 64.5505L59.2698 64.2605L56.1898 61.1805L56.1298 61.1205C55.8198 60.8105 55.7698 60.3005 56.0298 59.9405C56.0598 59.9005 56.0898 59.8605 56.1298 59.8205L58.3498 57.5905C58.4598 57.4805 58.5898 57.4005 58.7398 57.3605C58.8198 57.3405 58.9098 57.3205 58.9898 57.3205C59.2398 57.3205 59.4698 57.4205 59.6398 57.5905L62.8398 60.7905L63.0698 61.0305C63.3298 61.2905 63.4098 61.6805 63.2698 62.0405C63.2298 62.1405 63.1598 62.2405 63.0698 62.3305L60.8498 64.5505C60.8498 64.5505 60.7598 64.6305 60.7098 64.6705C60.3598 64.9105 59.8598 64.8605 59.5598 64.5605V64.5505ZM76.9298 89.7905C71.4298 89.7905 66.9498 85.3205 66.9498 79.8205C66.9498 77.5905 67.6698 75.4905 69.0298 73.7305C69.3898 73.2705 69.3598 72.6205 68.9698 72.1905L63.0698 65.7305L63.7198 65.0805L64.4498 64.3505L70.4698 70.9505C70.8498 71.3705 71.4698 71.4605 71.9598 71.1805C73.4598 70.3105 75.1698 69.8505 76.9298 69.8505C82.4298 69.8505 86.9098 74.3205 86.9098 79.8305C86.9098 85.3405 82.4398 89.8005 76.9298 89.8005V89.7905Z" fill="white"/>
<path d="M76.9301 72.4707C72.8801 72.4707 69.5801 75.7707 69.5801 79.8207C69.5801 83.8707 72.8801 87.1707 76.9301 87.1707C80.9801 87.1707 84.2801 83.8707 84.2801 79.8207C84.2801 75.7707 80.9801 72.4707 76.9301 72.4707ZM76.9301 84.7607C74.2001 84.7607 71.9801 82.5407 71.9801 79.8107C71.9801 77.0807 74.2001 74.8607 76.9301 74.8607C79.6601 74.8607 81.8801 77.0807 81.8801 79.8107C81.8801 82.5407 79.6601 84.7607 76.9301 84.7607Z" fill="white"/>
<path d="M42.3793 72.4707C38.3293 72.4707 35.0293 75.7707 35.0293 79.8207C35.0293 83.8707 38.3293 87.1707 42.3793 87.1707C46.4293 87.1707 49.7293 83.8707 49.7293 79.8207C49.7293 75.7707 46.4293 72.4707 42.3793 72.4707ZM42.3793 84.7607C39.6493 84.7607 37.4293 82.5407 37.4293 79.8107C37.4293 77.0807 39.6493 74.8607 42.3793 74.8607C45.1093 74.8607 47.3293 77.0807 47.3293 79.8107C47.3293 82.5407 45.1093 84.7607 42.3793 84.7607Z" fill="white"/>
</g>
<defs>
<clipPath id="clip0_904_24920">
<rect width="59.31" height="64.19" fill="white" transform="translate(30 28)"/>
</clipPath>
</defs>
</svg>
