<svg width="120" height="120" viewBox="0 0 120 120" fill="none" xmlns="http://www.w3.org/2000/svg">
<rect x="1" y="1" width="118" height="118" rx="59" stroke="white" stroke-width="2"/>
<g clip-path="url(#clip0_904_24918)">
<path d="M82.8905 43.47C81.1005 39 76.4605 38.78 76.2605 38.77C76.1105 38.77 75.9705 38.78 75.8305 38.83L54.0505 45.63L49.7705 40.51C49.7705 40.51 49.7205 40.45 49.6905 40.42C47.5205 38.25 44.9805 37 42.7205 37C41.1805 37 39.8005 37.57 38.7305 38.64L38.6405 38.73C37.2205 40.15 36.7005 42.11 37.1705 44.24C37.5805 46.08 38.7305 48.01 40.4105 49.7C40.4405 49.73 40.4705 49.75 40.5005 49.78L45.5205 53.97L38.7405 75.68C38.7005 75.82 38.6805 75.97 38.6805 76.11C38.6805 76.31 38.9105 80.95 43.3805 82.74C43.5405 82.8 43.7005 82.83 43.8605 82.83C44.3305 82.83 44.7805 82.57 45.0105 82.13C48.9005 74.58 53.5805 65.61 55.3605 62.19L65.9405 71.03L65.5605 72.61C65.0105 74.9 65.3605 77.28 66.6005 79.37L66.6205 79.4C66.8605 79.76 67.2605 79.98 67.7005 79.98C68.1305 79.98 68.5405 79.76 68.7805 79.4L71.8205 74.8L73.1005 74.54C73.8205 74.39 74.3805 73.83 74.5305 73.12L74.7905 71.84L79.3905 68.8C79.7505 68.56 79.9705 68.16 79.9705 67.73C79.9705 67.3 79.7605 66.89 79.4005 66.65C79.3805 66.64 79.3305 66.61 79.3105 66.59C77.3205 65.4 74.8705 65.03 72.6005 65.58L71.0205 65.96L62.2805 55.5C65.6605 53.74 74.6905 49.03 82.2805 45.12C82.8705 44.81 83.1405 44.11 82.8905 43.49V43.47ZM43.3105 79.78C41.7005 78.62 41.3505 76.8 41.2805 76.21L47.6605 55.76L53.3205 60.49C51.8505 63.31 47.2805 72.08 43.3005 79.78H43.3105ZM70.8405 68.65L73.2005 68.08C74.0705 67.87 74.9905 67.84 75.8705 68L72.9205 69.95C72.6305 70.14 72.4305 70.43 72.3705 70.77L72.1005 72.09L70.7805 72.36C70.4405 72.43 70.1505 72.63 69.9605 72.91L68.0105 75.87C67.8505 75 67.8705 74.09 68.0905 73.2L68.6605 70.84C68.7805 70.36 68.6105 69.86 68.2305 69.54L55.8105 59.17C55.8105 59.17 55.7805 59.15 55.7705 59.14L47.8705 52.54C47.8705 52.54 47.8505 52.52 47.8405 52.52L42.2105 47.82C40.8905 46.49 40.0005 45.02 39.7005 43.67C39.4205 42.39 39.6705 41.34 40.4705 40.55L40.5605 40.46C42.2205 38.8 45.2305 39.63 47.8305 42.2L69.5605 68.21C69.8805 68.59 70.3805 68.75 70.8605 68.64L70.8405 68.65ZM60.5805 53.45L55.8405 47.78L76.3505 41.38C76.9405 41.45 78.7605 41.8 79.9205 43.41C72.1605 47.41 63.3305 52.02 60.5705 53.46L60.5805 53.45Z" fill="white"/>
</g>
<defs>
<clipPath id="clip0_904_24918">
<rect width="45.98" height="45.83" fill="white" transform="translate(37 37)"/>
</clipPath>
</defs>
</svg>
