<svg width="120" height="120" viewBox="0 0 120 120" fill="none" xmlns="http://www.w3.org/2000/svg">
<rect x="1" y="1" width="118" height="118" rx="59" stroke="white" stroke-width="2"/>
<g clip-path="url(#clip0_904_24911)">
<path d="M84.2495 54.8096C82.3895 54.8096 80.6095 55.1496 78.9695 55.7696L72.9895 43.0396L74.4595 41.4696C74.7895 41.1196 74.8695 40.6096 74.6795 40.1696L73.9495 38.4996C73.4295 36.9096 71.9195 35.8896 70.2495 36.0096C70.1695 36.0096 70.0895 36.0296 70.0195 36.0496L68.2495 36.5396C67.6095 36.7196 67.2395 37.3796 67.4195 38.0196C67.5995 38.6596 68.2595 39.0296 68.8995 38.8496L70.5395 38.3996C71.0695 38.3996 71.5395 38.7496 71.6895 39.2696C71.6995 39.3196 71.7195 39.3596 71.7395 39.3996L72.1795 40.4096L70.6995 41.9996C70.3595 42.3596 70.2795 42.8896 70.4895 43.3296L73.5095 49.7596L60.2895 67.2496L53.7695 46.3296C55.1595 46.1496 56.7195 45.8696 58.4395 45.4396C59.0795 45.2796 59.4695 44.6296 59.3095 43.9796C59.1495 43.3396 58.4895 42.9496 57.8495 43.1096C51.3495 44.7396 47.1395 44.1096 47.0995 44.0996C46.4495 43.9896 45.8295 44.4396 45.7295 45.0896C45.6195 45.7396 46.0695 46.3596 46.7195 46.4696C46.8095 46.4796 47.7595 46.6296 49.4295 46.6296C49.9895 46.6296 50.6295 46.6096 51.3295 46.5696L52.8595 51.4796L45.8195 58.4496C43.1895 56.1896 39.7695 54.8096 36.0395 54.8096C27.7595 54.8096 21.0195 61.5496 21.0195 69.8296C21.0195 78.1096 27.7595 84.8496 36.0395 84.8496C44.3195 84.8496 50.3895 78.7496 51.0095 71.0296H59.8395C59.8395 71.0296 59.8395 71.0296 59.8495 71.0296C59.9595 71.0296 60.0595 71.0096 60.1595 70.9796C60.1695 70.9796 60.1795 70.9796 60.1895 70.9796C60.2295 70.9696 60.2595 70.9496 60.2995 70.9296C60.3295 70.9196 60.3595 70.9096 60.3895 70.8896C60.4495 70.8596 60.5095 70.8196 60.5695 70.7696C60.5795 70.7696 60.5995 70.7496 60.6095 70.7396C60.6795 70.6796 60.7395 70.6196 60.7895 70.5496C60.7895 70.5496 60.7895 70.5496 60.7995 70.5396L74.6695 52.1996L76.8295 56.7896C72.3095 59.3796 69.2595 64.2496 69.2595 69.8196C69.2595 78.0996 75.9995 84.8396 84.2795 84.8396C92.5595 84.8396 99.2995 78.0996 99.2995 69.8196C99.2995 61.5396 92.5595 54.7996 84.2795 54.7996L84.2495 54.8096ZM58.1895 68.6296H50.9895C50.7295 65.4196 49.4595 62.4796 47.4995 60.1496L53.6495 54.0596L58.1895 68.6296ZM45.7895 61.8496C47.3295 63.7396 48.3395 66.0696 48.5795 68.6296H38.9395L45.7895 61.8496ZM36.0295 82.4496C29.0695 82.4496 23.4095 76.7896 23.4095 69.8296C23.4095 62.8696 29.0695 57.2096 36.0295 57.2096C39.0995 57.2096 41.9095 58.3096 44.0995 60.1396L35.1795 68.9696C34.8295 69.3096 34.7295 69.8296 34.9095 70.2796C35.0995 70.7296 35.5295 71.0196 36.0195 71.0196H48.5795C47.9695 77.4196 42.5795 82.4396 36.0195 82.4396L36.0295 82.4496ZM84.2595 82.4496C77.2995 82.4496 71.6395 76.7896 71.6395 69.8296C71.6395 65.2196 74.1295 61.1896 77.8395 58.9896L83.1795 70.3396C83.3795 70.7696 83.8195 71.0296 84.2695 71.0296C84.4395 71.0296 84.6195 70.9896 84.7795 70.9196C85.3795 70.6396 85.6395 69.9196 85.3595 69.3196L80.0195 57.9696C81.3495 57.4896 82.7795 57.2196 84.2695 57.2196C91.2295 57.2196 96.8895 62.8796 96.8895 69.8396C96.8895 76.7996 91.2295 82.4596 84.2695 82.4596L84.2595 82.4496Z" fill="white"/>
</g>
<defs>
<clipPath id="clip0_904_24911">
<rect width="78.27" height="48.84" fill="white" transform="translate(21 36)"/>
</clipPath>
</defs>
</svg>
