<svg width="120" height="120" viewBox="0 0 120 120" fill="none" xmlns="http://www.w3.org/2000/svg">
<rect x="1" y="1" width="118" height="118" rx="59" stroke="white" stroke-width="2"/>
<g clip-path="url(#clip0_904_24917)">
<path d="M88.0699 50.4898C87.1199 49.6398 85.9999 49.2398 84.9099 49.3698C82.4599 49.6498 80.5599 51.2498 79.4199 53.9998L78.1299 57.1098H37.7099C37.3199 57.1098 36.9599 57.2898 36.7399 57.6098C36.5199 57.9298 36.4499 58.3198 36.5699 58.6898L43.2999 79.0698C43.4599 79.5598 43.9199 79.8898 44.4399 79.8898H47.1899C45.5599 80.9698 44.4899 82.8098 44.4899 84.9098C44.4899 88.2198 47.1899 90.9198 50.4999 90.9198C53.8099 90.9198 56.5099 88.2198 56.5099 84.9098C56.5099 82.8198 55.4299 80.9698 53.8099 79.8898H62.8299C61.1999 80.9698 60.1299 82.8098 60.1299 84.9098C60.1299 88.2198 62.8299 90.9198 66.1399 90.9198C69.4499 90.9198 72.1499 88.2198 72.1499 84.9098C72.1499 82.8198 71.0699 80.9698 69.4499 79.8898H72.5199C73.0399 79.8898 73.5099 79.5498 73.6599 79.0498L80.0599 58.7198L81.6399 54.9198C82.4399 52.9998 83.6299 51.9298 85.1899 51.7498C85.7199 51.6898 86.2299 52.0598 86.4799 52.2798C87.2599 52.9698 87.7599 54.0998 87.7599 55.1598C87.7599 55.8198 88.2999 56.3598 88.9599 56.3598C89.6199 56.3598 90.1599 55.8198 90.1599 55.1598C90.1599 53.4198 89.3599 51.6298 88.0799 50.4898H88.0699ZM54.2599 77.4898V69.6998H63.0899V77.4898H54.2599ZM54.2599 67.2998V59.5098H63.0899V67.2998H54.2599ZM51.8599 59.5098V67.2998H41.9399L39.3699 59.5098H51.8599ZM42.7299 69.6998H51.8599V77.4898H45.3099L42.7399 69.6998H42.7299ZM50.4899 88.5198C48.4999 88.5198 46.8799 86.8998 46.8799 84.9098C46.8799 82.9198 48.4999 81.2998 50.4899 81.2998C52.4799 81.2998 54.0999 82.9198 54.0999 84.9098C54.0999 86.8998 52.4799 88.5198 50.4899 88.5198ZM66.1299 88.5198C64.1399 88.5198 62.5199 86.8998 62.5199 84.9098C62.5199 82.9198 64.1399 81.2998 66.1299 81.2998C68.1199 81.2998 69.7399 82.9198 69.7399 84.9098C69.7399 86.8998 68.1199 88.5198 66.1299 88.5198ZM71.6199 77.4898H65.4799V69.6998H74.0699L71.6199 77.4898ZM74.8199 67.3098C74.8199 67.3098 74.7399 67.2998 74.6999 67.2998H65.4699V59.5098H77.2699L74.8099 67.3098H74.8199Z" fill="white"/>
<path d="M93.86 34.68H80.24C79.58 34.68 79.04 35.22 79.04 35.88V42.79H70.18V32.45C70.18 31.79 69.64 31.25 68.98 31.25H55.3C54.64 31.25 54.1 31.79 54.1 32.45V39.36H44.46L35.07 30.33C34.85 30.12 34.55 30 34.24 30H29.63C28.97 30 28.43 30.54 28.43 31.2V44.55H26.2C25.54 44.55 25 45.09 25 45.75C25 46.41 25.54 46.95 26.2 46.95H29.63C30.29 46.95 30.83 46.41 30.83 45.75V32.4H33.75L43.14 41.42C43.36 41.63 43.66 41.75 43.97 41.75H55.29C55.95 41.75 56.49 41.21 56.49 40.55V33.65H67.77V43.99C67.77 44.65 68.31 45.19 68.97 45.19H80.23C80.89 45.19 81.43 44.65 81.43 43.99V37.08H92.65V41.8C92.65 42.46 93.19 43 93.85 43C94.51 43 95.05 42.46 95.05 41.8V35.88C95.05 35.22 94.51 34.68 93.85 34.68H93.86Z" fill="white"/>
</g>
<defs>
<clipPath id="clip0_904_24917">
<rect width="70.06" height="60.91" fill="white" transform="translate(25 30)"/>
</clipPath>
</defs>
</svg>
