<svg width="120" height="120" viewBox="0 0 120 120" fill="none" xmlns="http://www.w3.org/2000/svg">
<rect x="1" y="1" width="118" height="118" rx="59" stroke="white" stroke-width="2"/>
<g clip-path="url(#clip0_904_24914)">
<path d="M71.9702 41.4909C71.9702 36.1009 67.5802 31.7109 62.1902 31.7109C56.8002 31.7109 52.4102 36.1009 52.4102 41.4909C52.4102 46.8809 56.8002 51.2709 62.1902 51.2709C67.5802 51.2709 71.9702 46.8809 71.9702 41.4909ZM54.8102 41.4909C54.8102 37.4209 58.1202 34.1109 62.1902 34.1109C66.2602 34.1109 69.5702 37.4209 69.5702 41.4909C69.5702 45.5609 66.2602 48.8709 62.1902 48.8709C58.1202 48.8709 54.8102 45.5609 54.8102 41.4909Z" fill="white"/>
<path d="M62.1893 78.38C62.5093 78.38 62.8093 78.25 63.0393 78.03C81.2993 59.77 80.7193 42.18 80.6793 41.5C80.6793 31.3 72.3893 23 62.1893 23C51.9893 23 43.6993 31.3 43.6993 41.44C43.6693 42.18 43.0893 59.76 61.3393 78.03C61.5693 78.26 61.8693 78.38 62.1893 78.38ZM46.0993 41.49C46.0993 32.62 53.3193 25.4 62.1893 25.4C71.0593 25.4 78.2793 32.62 78.2793 41.55C78.2793 41.72 78.8393 58.25 62.1893 75.47C45.5993 58.3 46.0893 41.71 46.0993 41.49Z" fill="white"/>
<path d="M89.49 57.8308C89.06 57.6308 88.57 57.7008 88.21 58.0008C85.07 60.6608 81.8 62.4108 78.5 63.2108C77.86 63.3708 77.46 64.0108 77.61 64.6608C77.77 65.3008 78.41 65.7008 79.06 65.5508C82.03 64.8308 84.96 63.4408 87.78 61.3908V88.5208C73.09 100.541 60.95 88.7508 60.44 88.2408C60.43 88.2308 60.41 88.2208 60.4 88.2008C60.39 88.1908 60.38 88.1808 60.37 88.1708C47.46 77.2408 35.94 83.2808 31.4 86.5608V59.4508C32.5 58.4708 36.15 55.5408 41.24 54.5008C41.89 54.3708 42.31 53.7308 42.18 53.0808C42.05 52.4308 41.41 52.0108 40.76 52.1408C33.93 53.5308 29.53 57.8808 29.35 58.0708C29.13 58.3008 29 58.6008 29 58.9208V89.0808C29 89.5608 29.29 90.0008 29.74 90.1908C30.19 90.3808 30.7 90.2708 31.05 89.9308C31.57 89.4108 43.93 77.4108 58.8 89.9808C59.44 90.5908 65.63 96.2508 74.35 96.2508C78.93 96.2508 84.22 94.6808 89.76 89.9908C90.03 89.7608 90.18 89.4308 90.18 89.0708V58.9108C90.18 58.4408 89.91 58.0208 89.48 57.8208L89.49 57.8308Z" fill="white"/>
</g>
<defs>
<clipPath id="clip0_904_24914">
<rect width="61.18" height="73.25" fill="white" transform="translate(29 23)"/>
</clipPath>
</defs>
</svg>
