<svg width="120" height="120" viewBox="0 0 120 120" fill="none" xmlns="http://www.w3.org/2000/svg">
<rect x="1" y="1" width="118" height="118" rx="59" stroke="white" stroke-width="2"/>
<g clip-path="url(#clip0_904_24919)">
<path d="M76.58 86.12H38C36.35 86.12 35 84.77 35 83.12V36C35 34.35 36.35 33 38 33H76.6C78.25 33 79.58 34.34 79.58 35.98C79.58 36.69 79 37.28 78.29 37.28C77.58 37.28 77 36.71 77 36C77 35.76 76.82 35.59 76.6 35.59H38C37.77 35.59 37.59 35.78 37.59 36V83.12C37.59 83.35 37.78 83.53 38 83.53H76.58C76.81 83.53 76.99 83.34 76.99 83.12V54.67C76.99 53.96 77.57 53.38 78.28 53.38C78.99 53.38 79.57 53.96 79.57 54.67V83.12C79.57 84.77 78.22 86.12 76.57 86.12H76.58Z" fill="white"/>
<path d="M67.7593 75.8808H46.8193C46.1093 75.8808 45.5293 75.3008 45.5293 74.5908C45.5293 73.8808 46.1093 73.3008 46.8193 73.3008H67.7593C68.4693 73.3008 69.0493 73.8808 69.0493 74.5908C69.0493 75.3008 68.4693 75.8808 67.7593 75.8808Z" fill="white"/>
<path d="M67.7593 69.8691H46.8193C46.1093 69.8691 45.5293 69.2891 45.5293 68.5791C45.5293 67.8691 46.1093 67.2891 46.8193 67.2891H67.7593C68.4693 67.2891 69.0493 67.8691 69.0493 68.5791C69.0493 69.2891 68.4693 69.8691 67.7593 69.8691Z" fill="white"/>
<path d="M84.4504 41.43L82.1204 39.1C80.9404 37.93 78.9004 37.92 77.7204 39.1L60.0504 56.77C60.0504 56.77 60.0504 56.79 60.0304 56.8C59.9304 56.91 59.8404 57.03 59.7804 57.17C59.7804 57.19 59.7604 57.21 59.7504 57.24C59.7404 57.27 59.7204 57.3 59.7104 57.33L57.7804 63.93L57.4004 64.31C56.9004 64.82 56.9004 65.63 57.4004 66.14C57.6504 66.39 57.9804 66.52 58.3104 66.52C58.6404 66.52 58.9704 66.39 59.2304 66.14L59.6104 65.76L66.2104 63.83C66.2104 63.83 66.2704 63.81 66.3004 63.79C66.3204 63.79 66.3404 63.77 66.3704 63.76C66.5104 63.7 66.6404 63.61 66.7404 63.51C66.7404 63.51 66.7604 63.51 66.7704 63.49L82.7804 47.48L84.4304 45.83C85.6404 44.62 85.6404 42.64 84.4304 41.43H84.4504ZM79.9204 40.78C80.0004 40.78 80.1604 40.8 80.2904 40.93L82.6204 43.26C82.8204 43.46 82.8204 43.8 82.6204 44L81.8804 44.74L78.8104 41.67L79.5504 40.93C79.6804 40.8 79.8404 40.78 79.9204 40.78ZM76.9804 43.5L80.0504 46.57L65.8604 60.76L62.7904 57.69L76.9804 43.5ZM61.5904 60.14L63.4004 61.95L60.8404 62.7L61.5904 60.14Z" fill="white"/>
<path d="M55.8693 63.8593H46.8193C46.1093 63.8593 45.5293 63.2793 45.5293 62.5693C45.5293 61.8593 46.1093 61.2793 46.8193 61.2793H55.8693C56.5793 61.2793 57.1593 61.8593 57.1593 62.5693C57.1593 63.2793 56.5793 63.8593 55.8693 63.8593Z" fill="white"/>
<path d="M58.3293 57.8495H46.8193C46.1093 57.8495 45.5293 57.2695 45.5293 56.5595C45.5293 55.8495 46.1093 55.2695 46.8193 55.2695H58.3293C59.0393 55.2695 59.6193 55.8495 59.6193 56.5595C59.6193 57.2695 59.0393 57.8495 58.3293 57.8495Z" fill="white"/>
<path d="M63.6093 51.8398H46.8193C46.1093 51.8398 45.5293 51.2598 45.5293 50.5498C45.5293 49.8398 46.1093 49.2598 46.8193 49.2598H63.6093C64.3193 49.2598 64.8993 49.8398 64.8993 50.5498C64.8993 51.2598 64.3193 51.8398 63.6093 51.8398Z" fill="white"/>
<path d="M67.7593 45.83H46.8193C46.1093 45.83 45.5293 45.25 45.5293 44.54C45.5293 43.83 46.1093 43.25 46.8193 43.25H67.7593C68.4693 43.25 69.0493 43.83 69.0493 44.54C69.0493 45.25 68.4693 45.83 67.7593 45.83Z" fill="white"/>
</g>
<defs>
<clipPath id="clip0_904_24919">
<rect width="50.36" height="53.12" fill="white" transform="translate(35 33)"/>
</clipPath>
</defs>
</svg>
