<svg width="120" height="120" viewBox="0 0 120 120" fill="none" xmlns="http://www.w3.org/2000/svg">
<rect x="1" y="1" width="118" height="118" rx="59" stroke="white" stroke-width="2"/>
<g clip-path="url(#clip0_904_24915)">
<path d="M58.5896 59.3706C58.9996 59.3706 59.3596 59.1806 59.5896 58.8806C59.8896 58.6406 60.0796 58.2806 60.0796 57.8806C60.0796 57.4806 59.8896 57.1106 59.5896 56.8806C59.3496 56.5806 58.9896 56.3906 58.5896 56.3906C58.1896 56.3906 57.8196 56.5806 57.5896 56.8806C57.2896 57.1206 57.0996 57.4806 57.0996 57.8806C57.0996 58.2806 57.2896 58.6506 57.5896 58.8806C57.8296 59.1806 58.1896 59.3706 58.5896 59.3706Z" fill="white"/>
<path d="M74.3591 59.3691C74.7691 59.3691 75.1291 59.1791 75.3591 58.8791C75.6591 58.6391 75.8491 58.2791 75.8491 57.8691C75.8491 57.4591 75.6591 57.0991 75.3591 56.8591C75.1191 56.5591 74.7591 56.3691 74.3591 56.3691C73.9591 56.3691 73.5891 56.5591 73.3591 56.8591C73.0591 57.0991 72.8691 57.4591 72.8691 57.8591C72.8691 58.2591 73.0591 58.6291 73.3591 58.8591C73.5991 59.1591 73.9591 59.3491 74.3591 59.3491V59.3691Z" fill="white"/>
<path d="M100.18 52.3598C99.71 52.2698 99.18 52.1798 98.62 52.0898C98.59 52.0898 98.56 52.0798 98.53 52.0798C96.53 51.7498 93.49 51.3498 90.21 51.2498C89.62 51.2298 89.07 50.9998 88.65 50.5998C84.66 46.7698 80.06 43.1798 77.68 41.3898C76.49 40.4898 75.06 40.0098 73.55 40.0098H53.91C52.34 40.0098 50.82 40.5498 49.61 41.5198C47.68 43.0598 44.29 45.8898 41.71 48.6698C40.47 47.5598 38.81 46.4898 37.45 47.0398C36.73 47.3398 36.2 47.8698 35.92 48.5998C35.54 49.5698 35.71 50.7098 36.03 51.4098C36.06 51.4798 36.1 51.5398 36.14 51.5898C31.11 52.3398 25.25 54.0898 21.55 55.1998L21.4 55.2398C19.52 55.7998 18.1 57.3298 17.71 59.2398C17.51 60.1898 17.38 61.1898 17.27 62.2198C17.27 62.2298 17.27 62.2498 17.27 62.2598C17.06 64.3698 17 66.5998 17 68.6198C17 69.3398 17.28 70.0298 17.79 70.5398C18.3 71.0598 18.99 71.3398 19.71 71.3398H29.05C29.68 75.6898 33.42 79.0398 37.94 79.0398C42.46 79.0398 46.2 75.6898 46.83 71.3398H77.96C78.59 75.6898 82.33 79.0398 86.85 79.0398C91.37 79.0398 95.11 75.6898 95.74 71.3398H101.19C102.69 71.3398 103.9 70.1198 103.9 68.6298V56.8198C103.9 54.6298 102.34 52.7498 100.18 52.3598ZM37.93 76.4698C34.39 76.4698 31.51 73.5898 31.51 70.0498C31.51 66.5098 34.39 63.6298 37.93 63.6298C41.47 63.6298 44.35 66.5098 44.35 70.0498C44.35 73.5898 41.47 76.4698 37.93 76.4698ZM86.84 76.4698C83.3 76.4698 80.42 73.5898 80.42 70.0498C80.42 66.5098 83.3 63.6298 86.84 63.6298C90.38 63.6298 93.26 66.5098 93.26 70.0498C93.26 73.5898 90.38 76.4698 86.84 76.4698ZM101.18 68.7698H95.73C95.1 64.4198 91.36 61.0698 86.84 61.0698C82.32 61.0698 78.58 64.4298 77.95 68.7698H46.82C46.19 64.4198 42.45 61.0698 37.93 61.0698C33.41 61.0698 29.67 64.4298 29.04 68.7698H19.71C19.71 68.7698 19.64 68.7598 19.61 68.7298C19.57 68.6898 19.57 68.6498 19.57 68.6398C19.57 68.0898 19.57 67.5198 19.59 66.9498H26.31C27.02 66.9498 27.6 66.3698 27.6 65.6598C27.6 64.9498 27.02 64.3698 26.31 64.3698H19.69C19.71 64.0698 19.73 63.7698 19.75 63.4798C21.84 63.1098 26.14 61.9598 26.44 58.8098C26.51 58.0998 25.99 57.4698 25.28 57.3998C24.58 57.3298 23.94 57.8498 23.87 58.5598C23.78 59.5398 21.9 60.3598 20.04 60.7898C20.1 60.4298 20.16 60.0898 20.23 59.7498C20.43 58.7798 21.16 57.9898 22.14 57.6998L22.29 57.6598C26.47 56.4098 33.48 54.3098 38.63 53.8798C39.09 53.8398 39.43 53.7998 39.95 53.5998C40 53.5798 40.05 53.5498 40.1 53.5198C40.12 53.5098 40.14 53.4998 40.16 53.4898C40.25 53.4298 40.33 53.3698 40.4 53.2898C40.42 53.2698 40.43 53.2498 40.45 53.2398C40.51 53.1698 40.56 53.0998 40.6 53.0198C40.6 53.0098 40.62 52.9898 40.63 52.9798C40.63 52.9698 40.63 52.9598 40.64 52.9498C40.66 52.9098 40.67 52.8698 40.69 52.8198C40.7 52.7798 40.72 52.7398 40.73 52.7098C40.73 52.6698 40.74 52.6298 40.75 52.5898C40.75 52.5498 40.76 52.5098 40.76 52.4698C40.76 52.4298 40.76 52.3898 40.76 52.3498C40.76 52.3098 40.76 52.2698 40.76 52.2298C40.76 52.1898 40.74 52.1498 40.73 52.1098C40.72 52.0698 40.71 52.0198 40.69 51.9798C40.69 51.9698 40.69 51.9598 40.69 51.9498C40.68 51.9198 40.66 51.8998 40.65 51.8798C40.63 51.8398 40.61 51.7998 40.59 51.7598C40.57 51.7198 40.54 51.6898 40.52 51.6598C40.49 51.6298 40.47 51.5898 40.44 51.5598C40.41 51.5298 40.38 51.4998 40.35 51.4698C40.32 51.4398 40.29 51.4098 40.25 51.3898C40.22 51.3698 40.18 51.3398 40.14 51.3198C40.11 51.2998 40.09 51.2898 40.06 51.2698C39.92 51.1998 39.78 51.1298 39.64 51.0698C39.1 50.8198 38.67 50.6098 38.34 50.2298C38.29 50.0498 38.25 49.7398 38.34 49.5398C38.34 49.5198 38.35 49.4998 38.36 49.4898C38.85 49.6398 40 50.5298 40.84 51.4198C40.84 51.4198 40.86 51.4298 40.87 51.4398C40.9 51.4698 40.92 51.4998 40.95 51.5198C41.04 51.5998 41.14 51.6498 41.24 51.6998C41.26 51.6998 41.28 51.7198 41.3 51.7198C41.44 51.7798 41.58 51.8098 41.72 51.8198C41.74 51.8198 41.76 51.8198 41.78 51.8198C41.92 51.8198 42.07 51.7998 42.21 51.7498C42.23 51.7498 42.25 51.7398 42.27 51.7298C42.41 51.6798 42.54 51.5998 42.65 51.4898C42.65 51.4898 42.67 51.4898 42.67 51.4798C42.67 51.4798 42.68 51.4598 42.69 51.4498C42.72 51.4198 42.75 51.3998 42.77 51.3698C45.36 48.3398 49.55 44.8798 51.24 43.5298C51.99 42.9198 52.95 42.5898 53.93 42.5898H73.57C74.51 42.5898 75.41 42.8898 76.15 43.4498C78.49 45.2098 83 48.7298 86.89 52.4698C87.77 53.3098 88.93 53.7998 90.16 53.8398C92.77 53.9098 95.21 54.1898 97.07 54.4698C96.92 57.4598 97.2 61.4198 99.66 61.8298C99.73 61.8398 99.8 61.8498 99.87 61.8498C100.49 61.8498 101.03 61.3998 101.14 60.7698C101.25 60.1098 100.83 59.4798 100.19 59.3098C99.8 58.8398 99.58 56.9498 99.64 54.8898C99.68 54.8898 99.72 54.8998 99.75 54.9098C100.68 55.0798 101.35 55.8898 101.35 56.8398V63.4298H96.43C95.72 63.4298 95.14 64.0098 95.14 64.7198C95.14 65.4298 95.72 66.0098 96.43 66.0098H101.35V68.6498C101.35 68.7298 101.29 68.7898 101.21 68.7898L101.18 68.7698Z" fill="white"/>
<path d="M86.8504 65.5996C84.3904 65.5996 82.4004 67.5996 82.4004 70.0496C82.4004 72.4996 84.4004 74.4996 86.8504 74.4996C89.3004 74.4996 91.3004 72.4996 91.3004 70.0496C91.3004 67.5996 89.3004 65.5996 86.8504 65.5996ZM86.8504 71.9296C85.8104 71.9296 84.9704 71.0896 84.9704 70.0496C84.9704 69.0096 85.8104 68.1696 86.8504 68.1696C87.8904 68.1696 88.7304 69.0096 88.7304 70.0496C88.7304 71.0896 87.8904 71.9296 86.8504 71.9296Z" fill="white"/>
<path d="M75.74 65.5996H47.79C47.08 65.5996 46.5 66.1796 46.5 66.8896C46.5 67.5996 47.08 68.1796 47.79 68.1796H75.74C76.45 68.1796 77.03 67.5996 77.03 66.8896C77.03 66.1796 76.45 65.5996 75.74 65.5996Z" fill="white"/>
<path d="M37.9402 65.5996C35.4802 65.5996 33.4902 67.5996 33.4902 70.0496C33.4902 72.4996 35.4902 74.4996 37.9402 74.4996C40.3902 74.4996 42.3902 72.4996 42.3902 70.0496C42.3902 67.5996 40.3902 65.5996 37.9402 65.5996ZM37.9402 71.9296C36.9002 71.9296 36.0602 71.0896 36.0602 70.0496C36.0602 69.0096 36.9002 68.1696 37.9402 68.1696C38.9802 68.1696 39.8202 69.0096 39.8202 70.0496C39.8202 71.0896 38.9802 71.9296 37.9402 71.9296Z" fill="white"/>
<path d="M82.9901 52.6591C82.9901 52.5591 82.9901 52.4691 82.9601 52.3791C82.9601 52.3591 82.9601 52.3291 82.9501 52.3091C82.9201 52.1991 82.8801 52.0991 82.8301 52.0091C82.8301 51.9891 82.8101 51.9791 82.8001 51.9591C82.7501 51.8791 82.6901 51.7991 82.6101 51.7291C82.6001 51.7191 82.5901 51.7091 82.5801 51.6991L74.9501 44.6791C73.8501 43.6691 72.4301 43.1191 70.9401 43.1191H55.6901C54.2001 43.1191 52.7701 43.6791 51.6801 44.6791L45.6901 50.1891C45.0201 50.8091 44.7501 51.7391 45.0001 52.6191C45.2501 53.4991 45.9601 54.1591 46.8601 54.3291C46.9301 54.3391 47.0001 54.3491 47.0801 54.3491L59.6101 54.6391C60.3201 54.6391 60.9101 54.0891 60.9301 53.3791C60.9501 52.6691 60.3801 52.0791 59.6701 52.0591L47.7401 51.7791L53.4201 46.5591C54.0401 45.9891 54.8401 45.6791 55.6901 45.6791H62.0301V62.3491C62.0301 63.0591 62.6101 63.6391 63.3201 63.6391C64.0301 63.6391 64.6101 63.0591 64.6101 62.3491V45.6791H70.9501C71.7901 45.6791 72.6001 45.9891 73.2201 46.5591L78.5801 51.4891L66.8501 52.0491C66.1401 52.0791 65.5901 52.6891 65.6201 53.3991C65.6501 54.1091 66.2501 54.6491 66.9701 54.6191L79.5301 54.0191L75.4501 61.7391C75.1201 62.3691 75.3601 63.1491 75.9901 63.4791C76.1801 63.5791 76.3901 63.6291 76.5901 63.6291C77.0501 63.6291 77.5001 63.3791 77.7301 62.9391L82.8701 53.2291C82.8701 53.2291 82.9001 53.1491 82.9201 53.1091C82.9201 53.0891 82.9401 53.0791 82.9401 53.0691C82.9401 53.0691 82.9401 53.0491 82.9401 53.0391C82.9801 52.9291 83.0001 52.8191 83.0101 52.7091C83.0101 52.6891 83.0101 52.6691 83.0101 52.6491L82.9901 52.6591Z" fill="white"/>
</g>
<defs>
<clipPath id="clip0_904_24915">
<rect width="86.9" height="39.04" fill="white" transform="translate(17 40)"/>
</clipPath>
</defs>
</svg>
