<svg width="120" height="120" viewBox="0 0 120 120" fill="none" xmlns="http://www.w3.org/2000/svg">
<rect x="1" y="1" width="118" height="118" rx="59" stroke="white" stroke-width="2"/>
<g clip-path="url(#clip0_904_24910)">
<path d="M80.8695 84.9909C79.8795 84.9909 78.9595 84.6109 78.2595 83.9109L63.6195 69.2709C63.1295 68.7809 63.1295 67.9809 63.6195 67.4909C64.1095 67.0009 64.9095 67.0009 65.3995 67.4909L80.0395 82.1309C80.4795 82.5709 81.2495 82.5709 81.6895 82.1309C81.9395 81.8809 82.0595 81.5809 82.0595 81.2709C82.0595 80.9609 81.9395 80.6709 81.7195 80.4509L67.1095 65.8409C66.6195 65.3509 66.6195 64.5509 67.1095 64.0609C67.5995 63.5709 68.3995 63.5709 68.8895 64.0609L83.4995 78.6709C84.9395 80.1109 84.9395 82.4409 83.4995 83.8809C82.7695 84.6109 81.8395 85.0009 80.8595 85.0009L80.8695 84.9909Z" fill="white"/>
<path d="M87.18 41.3995C87.01 40.9395 86.58 40.6195 86.08 40.5795C86.08 40.5795 85.92 40.5695 85.63 40.5695C83.12 40.5695 71.23 41.3395 59.61 54.7595L58.08 53.2295C58.02 53.1695 58.01 53.0895 58.05 53.0195C58.85 51.7195 59.65 49.0095 56.07 45.4395L54.81 44.1795L44 33.3695C43.51 32.8795 42.71 32.8795 42.22 33.3695C41.73 33.8595 41.73 34.6595 42.22 35.1495L52.14 45.0695L50.88 46.3295L40.96 36.4095C40.47 35.9195 39.67 35.9195 39.18 36.4095C38.69 36.8995 38.69 37.6995 39.18 38.1895L49.1 48.1095L47.81 49.3995L37.88 39.4895C37.39 38.9995 36.59 38.9995 36.1 39.4895C35.61 39.9795 35.61 40.7795 36.1 41.2695L46.02 51.1895L44.71 52.4995L34.78 42.5895L33 44.3695L45.07 56.4395C48.62 59.9895 51.33 59.2195 52.62 58.4395C52.68 58.3995 52.76 58.4195 52.82 58.4695L55.08 60.7295C54.78 61.2195 54.85 61.8595 55.26 62.2695L56.06 63.0695L39.24 79.8895C37.8 81.3295 37.8 83.6695 39.28 85.1395C39.98 85.8395 40.9 86.2195 41.89 86.2195C42.88 86.2195 43.8 85.8395 44.5 85.1395L86.89 42.7295C87.24 42.3795 87.35 41.8595 87.18 41.3895V41.3995ZM51.32 56.2795C49.85 57.1595 48.08 55.8895 46.86 54.6595L46.49 54.2895L53.92 46.8595L54.29 47.2295C55.52 48.4595 56.8 50.2395 55.9 51.7095C55.25 52.7695 55.41 54.1395 56.29 55.0195L57.99 56.7195C57.5 57.3295 57.02 57.9695 56.54 58.6295L54.6 56.6895C53.72 55.8095 52.37 55.6395 51.32 56.2795ZM42.71 83.3595C42.27 83.7995 41.54 83.8295 41.03 83.3295C40.58 82.8795 40.58 82.1395 41.03 81.6795L58.74 63.9695C59.23 63.4795 59.23 62.6795 58.74 62.1895L57.8 61.2495C57.84 61.1895 57.89 61.1295 57.91 61.0595C58.78 59.8195 59.65 58.6695 60.52 57.5995C60.54 57.5795 60.57 57.5695 60.6 57.5495C60.66 57.4895 60.69 57.4195 60.73 57.3495C69.33 46.9395 78.07 44.1095 82.7 43.3695L42.71 83.3495V83.3595Z" fill="white"/>
</g>
<defs>
<clipPath id="clip0_904_24910">
<rect width="54.26" height="53.21" fill="white" transform="translate(33 33)"/>
</clipPath>
</defs>
</svg>
