<svg width="120" height="120" viewBox="0 0 120 120" fill="none" xmlns="http://www.w3.org/2000/svg">
<rect x="1" y="1" width="118" height="118" rx="59" stroke="white" stroke-width="2"/>
<g clip-path="url(#clip0_904_24916)">
<path d="M86.1001 56.3906C85.4401 56.3906 84.9001 56.9306 84.9001 57.5906V91.9406H66.8801V67.9406C66.8801 67.2806 66.3401 66.7406 65.6801 66.7406H54.4501C53.7901 66.7406 53.2501 67.2806 53.2501 67.9406V91.9406H35.2301V57.5906C35.2301 56.9306 34.6901 56.3906 34.0301 56.3906C33.3701 56.3906 32.8301 56.9306 32.8301 57.5906V93.1406C32.8301 93.8006 33.3701 94.3406 34.0301 94.3406H54.4501C55.1101 94.3406 55.6501 93.8006 55.6501 93.1406V69.1406H64.4801V93.1406C64.4801 93.8006 65.0201 94.3406 65.6801 94.3406H86.1001C86.7601 94.3406 87.3001 93.8006 87.3001 93.1406V57.5906C87.3001 56.9306 86.7601 56.3906 86.1001 56.3906Z" fill="white"/>
<path d="M95.7296 57.8398L81.2296 44.7198V31.6398C81.2296 30.9798 80.6896 30.4398 80.0296 30.4398H72.3196C71.6596 30.4398 71.1196 30.9798 71.1196 31.6398V35.5798L60.8696 26.3098C60.8696 26.3098 60.8396 26.2898 60.8296 26.2798C60.7896 26.2498 60.7596 26.2198 60.7196 26.1998C60.6896 26.1798 60.6596 26.1598 60.6296 26.1498C60.5896 26.1298 60.5496 26.1098 60.5096 26.0998C60.4796 26.0898 60.4396 26.0698 60.4096 26.0598C60.3696 26.0498 60.3296 26.0398 60.2896 26.0298C60.2496 26.0298 60.2196 26.0198 60.1796 26.0098C60.1396 26.0098 60.0996 26.0098 60.0596 26.0098C60.0196 26.0098 59.9796 26.0098 59.9496 26.0098C59.9096 26.0098 59.8696 26.0098 59.8396 26.0298C59.7996 26.0298 59.7596 26.0498 59.7296 26.0598C59.6896 26.0698 59.6596 26.0798 59.6296 26.0998C59.5896 26.1198 59.5496 26.1298 59.5196 26.1498C59.4896 26.1698 59.4596 26.1798 59.4296 26.1998C59.3896 26.2198 59.3596 26.2498 59.3196 26.2798C59.3096 26.2898 59.2896 26.2998 59.2796 26.3098L24.3896 57.8398C23.8996 58.2798 23.8596 59.0398 24.2996 59.5398C24.5396 59.7998 24.8596 59.9298 25.1896 59.9298C25.4796 59.9298 25.7696 59.8298 25.9896 59.6198L60.0596 28.8098L71.5096 39.1698C71.5096 39.1698 71.5596 39.1998 71.5796 39.2198C71.6096 39.2398 71.6396 39.2698 71.6696 39.2898C71.7096 39.3098 71.7396 39.3298 71.7796 39.3498C71.8096 39.3598 71.8396 39.3798 71.8696 39.3898C71.9096 39.4098 71.9596 39.4198 72.0096 39.4298C72.0396 39.4298 72.0596 39.4498 72.0896 39.4498C72.1696 39.4598 72.2396 39.4698 72.3196 39.4698C72.3996 39.4698 72.4796 39.4698 72.5596 39.4498C72.6396 39.4298 72.7096 39.4098 72.7796 39.3798C72.7996 39.3798 72.8196 39.3598 72.8396 39.3398C72.8896 39.3098 72.9396 39.2898 72.9896 39.2598C73.0096 39.2398 73.0296 39.2198 73.0596 39.1998C73.0996 39.1698 73.1396 39.1298 73.1796 39.0898C73.1796 39.0898 73.1896 39.0798 73.1996 39.0698C73.2196 39.0498 73.2296 39.0298 73.2496 39.0098C73.2796 38.9798 73.2996 38.9398 73.3296 38.8998C73.3496 38.8698 73.3696 38.8398 73.3796 38.7998C73.3996 38.7598 73.4196 38.7298 73.4296 38.6898C73.4396 38.6498 73.4496 38.6198 73.4596 38.5798C73.4696 38.5398 73.4796 38.5098 73.4896 38.4698C73.4896 38.4298 73.4996 38.3798 73.4996 38.3398C73.4996 38.3098 73.4996 38.2898 73.4996 38.2598V32.8198H78.8096V45.2298C78.8096 45.2298 78.8096 45.2498 78.8096 45.2598C78.8096 45.2998 78.8096 45.3498 78.8196 45.3898C78.8196 45.4298 78.8196 45.4598 78.8396 45.4998C78.8396 45.5398 78.8596 45.5798 78.8796 45.6098C78.8896 45.6498 78.8996 45.6798 78.9196 45.7198C78.9396 45.7498 78.9596 45.7898 78.9696 45.8198C78.9896 45.8498 79.0096 45.8898 79.0296 45.9198C79.0496 45.9498 79.0796 45.9798 79.0996 45.9998C79.1296 46.0298 79.1496 46.0698 79.1896 46.0898C79.1896 46.0898 79.1996 46.1098 79.2096 46.1098L94.1096 59.5898C94.3396 59.7998 94.6296 59.8998 94.9096 59.8998C95.2396 59.8998 95.5596 59.7698 95.7996 59.5098C96.2396 59.0198 96.2096 58.2598 95.7196 57.8098L95.7296 57.8398Z" fill="white"/>
</g>
<defs>
<clipPath id="clip0_904_24916">
<rect width="72.12" height="68.34" fill="white" transform="translate(24 26)"/>
</clipPath>
</defs>
</svg>
