<svg width="120" height="120" viewBox="0 0 120 120" fill="none" xmlns="http://www.w3.org/2000/svg">
<rect x="1" y="1" width="118" height="118" rx="59" stroke="white" stroke-width="2"/>
<g clip-path="url(#clip0_904_24912)">
<path d="M51.3491 63.3595C50.8091 63.0095 50.2691 62.7495 49.7291 62.5195C50.3291 62.0495 50.8391 61.4395 51.1891 60.7095C51.5191 60.0095 51.6891 59.2595 51.6891 58.4795C51.6891 55.6995 49.5291 53.4395 46.8791 53.4395C44.2291 53.4395 42.0691 55.6995 42.0691 58.4795C42.0691 59.2595 42.2391 60.0095 42.5691 60.7095C42.9191 61.4495 43.4291 62.0595 44.0291 62.5295C43.4891 62.7495 42.9591 63.0095 42.4291 63.3595C39.9891 64.9395 38.6491 67.2795 38.2291 70.6995C38.1391 71.4095 38.6491 72.0495 39.3491 72.1395C40.0591 72.2295 40.6991 71.7195 40.7891 71.0195C41.2091 67.6495 42.5591 66.3595 43.8291 65.5295C45.9491 64.1595 47.8291 64.1595 49.9491 65.5295C51.2691 66.3895 52.6691 67.7595 53.0391 71.3995C53.1091 72.0695 53.6691 72.5695 54.3291 72.5695C54.3691 72.5695 54.4191 72.5695 54.4591 72.5695C55.1691 72.4995 55.6891 71.8695 55.6191 71.1595C55.2591 67.4895 53.8991 65.0195 51.3691 63.3795L51.3491 63.3595ZM46.8691 56.0295C48.0991 56.0295 49.0891 57.1295 49.0891 58.4795C49.0891 58.8795 49.0091 59.2595 48.8391 59.6095C48.4491 60.4295 47.6991 60.9295 46.8691 60.9295C46.0391 60.9295 45.2791 60.4195 44.8991 59.6095C44.7291 59.2495 44.6491 58.8695 44.6491 58.4695C44.6491 57.1195 45.6491 56.0195 46.8691 56.0195V56.0295Z" fill="white"/>
<path d="M85.94 45.2H68.64V42.47C68.64 41.11 67.57 40 66.25 40H53.88C52.56 40 51.49 41.11 51.49 42.47V45.2H33.34C31.5 45.2 30 46.76 30 48.68V77.33C30 79.25 31.5 80.81 33.34 80.81H85.94C87.78 80.81 89.27 79.25 89.27 77.33V48.68C89.27 46.76 87.77 45.2 85.94 45.2ZM54.08 42.58H66.05V50.39H65.42C64.79 47.58 62.68 45.72 60.07 45.72C57.46 45.72 55.32 47.58 54.71 50.39H54.07V42.59L54.08 42.58ZM86.69 77.32C86.69 77.8 86.35 78.21 85.94 78.21H33.34C32.93 78.21 32.59 77.8 32.59 77.32V48.68C32.59 48.19 32.93 47.79 33.34 47.79H51.49V50.8C51.49 52 52.44 52.98 53.62 52.98H55.11C56.15 52.98 57.03 52.22 57.2 51.17C57.5 49.41 58.6 48.32 60.07 48.32C61.54 48.32 62.63 49.44 62.93 51.17C63.11 52.22 63.98 52.98 65.01 52.98H66.5C67.67 52.98 68.63 52 68.63 50.8V47.79H85.93C86.34 47.79 86.68 48.19 86.68 48.68V77.33L86.69 77.32Z" fill="white"/>
<path d="M78.1605 67.5409H64.1005C63.3905 67.5409 62.8105 66.9609 62.8105 66.2509C62.8105 65.5409 63.3905 64.9609 64.1005 64.9609H78.1605C78.8705 64.9609 79.4505 65.5409 79.4505 66.2509C79.4505 66.9609 78.8705 67.5409 78.1605 67.5409Z" fill="white"/>
<path d="M78.1605 61.3007H64.1005C63.3905 61.3007 62.8105 60.7207 62.8105 60.0107C62.8105 59.3007 63.3905 58.7207 64.1005 58.7207H78.1605C78.8705 58.7207 79.4505 59.3007 79.4505 60.0107C79.4505 60.7207 78.8705 61.3007 78.1605 61.3007Z" fill="white"/>
</g>
<defs>
<clipPath id="clip0_904_24912">
<rect width="59.27" height="40.8" fill="white" transform="translate(30 40)"/>
</clipPath>
</defs>
</svg>
