<svg width="120" height="120" viewBox="0 0 120 120" fill="none" xmlns="http://www.w3.org/2000/svg">
<rect x="1" y="1" width="118" height="118" rx="59" stroke="white" stroke-width="2"/>
<g clip-path="url(#clip0_904_24913)">
<path d="M66.2409 69.4609H66.1709C63.5709 69.4609 61.4609 71.5709 61.4609 74.1709V77.9309C61.4609 78.5909 62.0009 79.1309 62.6609 79.1309C63.3209 79.1309 63.8609 78.5909 63.8609 77.9309V74.1709C63.8609 72.9009 64.9009 71.8609 66.1709 71.8609H66.2409C67.5109 71.8609 68.5509 72.9009 68.5509 74.1709V77.9309C68.5509 78.5909 69.0909 79.1309 69.7509 79.1309C70.4109 79.1309 70.9509 78.5909 70.9509 77.9309V74.1709C70.9509 71.5709 68.8409 69.4609 66.2409 69.4609Z" fill="white"/>
<path d="M53.2409 69.4609H53.1709C50.5709 69.4609 48.4609 71.5709 48.4609 74.1709V77.9309C48.4609 78.5909 49.0009 79.1309 49.6609 79.1309C50.3209 79.1309 50.8609 78.5909 50.8609 77.9309V74.1709C50.8609 72.9009 51.9009 71.8609 53.1709 71.8609H53.2409C54.5209 71.8609 55.5509 72.9009 55.5509 74.1709V77.9309C55.5509 78.5909 56.0909 79.1309 56.7509 79.1309C57.4109 79.1309 57.9509 78.5909 57.9509 77.9309V74.1709C57.9509 71.5709 55.8409 69.4609 53.2409 69.4609Z" fill="white"/>
<path d="M66.2409 56.3105H66.1709C63.5709 56.3105 61.4609 58.4205 61.4609 61.0205V64.7805C61.4609 65.4405 62.0009 65.9805 62.6609 65.9805C63.3209 65.9805 63.8609 65.4405 63.8609 64.7805V61.0205C63.8609 59.7405 64.9009 58.7105 66.1709 58.7105H66.2409C67.5109 58.7105 68.5509 59.7505 68.5509 61.0205V64.7805C68.5509 65.4405 69.0909 65.9805 69.7509 65.9805C70.4109 65.9805 70.9509 65.4405 70.9509 64.7805V61.0205C70.9509 58.4205 68.8409 56.3105 66.2409 56.3105Z" fill="white"/>
<path d="M53.2409 56.3105H53.1709C50.5709 56.3105 48.4609 58.4205 48.4609 61.0205V64.7805C48.4609 65.4405 49.0009 65.9805 49.6609 65.9805C50.3209 65.9805 50.8609 65.4405 50.8609 64.7805V61.0205C50.8609 59.7405 51.9009 58.7105 53.1709 58.7105H53.2409C54.5209 58.7105 55.5509 59.7505 55.5509 61.0205V64.7805C55.5509 65.4405 56.0909 65.9805 56.7509 65.9805C57.4109 65.9805 57.9509 65.4405 57.9509 64.7805V61.0205C57.9509 58.4205 55.8409 56.3105 53.2409 56.3105Z" fill="white"/>
<path d="M66.2409 43.1699H66.1709C63.5709 43.1699 61.4609 45.2799 61.4609 47.8799V51.6399C61.4609 52.2999 62.0009 52.8399 62.6609 52.8399C63.3209 52.8399 63.8609 52.2999 63.8609 51.6399V47.8799C63.8609 46.6099 64.9009 45.5699 66.1709 45.5699H66.2409C67.5109 45.5699 68.5509 46.6099 68.5509 47.8799V51.6399C68.5509 52.2999 69.0909 52.8399 69.7509 52.8399C70.4109 52.8399 70.9509 52.2999 70.9509 51.6399V47.8799C70.9509 45.2799 68.8409 43.1699 66.2409 43.1699Z" fill="white"/>
<path d="M53.2409 43.1699H53.1709C50.5709 43.1699 48.4609 45.2799 48.4609 47.8799V51.6399C48.4609 52.2999 49.0009 52.8399 49.6609 52.8399C50.3209 52.8399 50.8609 52.2999 50.8609 51.6399V47.8799C50.8609 46.6099 51.9009 45.5699 53.1709 45.5699H53.2409C54.5209 45.5699 55.5509 46.6099 55.5509 47.8799V51.6399C55.5509 52.2999 56.0909 52.8399 56.7509 52.8399C57.4109 52.8399 57.9509 52.2999 57.9509 51.6399V47.8799C57.9509 45.2799 55.8409 43.1699 53.2409 43.1699Z" fill="white"/>
<path d="M97.22 86.07H93.23V51.68C93.23 51.02 92.69 50.48 92.03 50.48H82.09C81.43 50.48 80.89 51.02 80.89 51.68C80.89 52.34 81.43 52.88 82.09 52.88H90.83V86.07H77.74V73.24H79.35C81 73.24 82.35 74.58 82.35 76.24V80.44C82.35 81.1 82.89 81.64 83.55 81.64C84.21 81.64 84.75 81.1 84.75 80.44V76.24C84.75 73.26 82.33 70.84 79.35 70.84H77.74V59.35H79.35C81 59.35 82.35 60.69 82.35 62.35V66.55C82.35 67.21 82.89 67.75 83.55 67.75C84.21 67.75 84.75 67.21 84.75 66.55V62.35C84.75 59.37 82.33 56.95 79.35 56.95H77.74V33.4H80.04C80.7 33.4 81.24 32.86 81.24 32.2C81.24 31.54 80.7 31 80.04 31H39.37C38.71 31 38.17 31.54 38.17 32.2C38.17 32.86 38.71 33.4 39.37 33.4H41.67V56.95H40.06C37.08 56.95 34.66 59.37 34.66 62.35V66.55C34.66 67.21 35.2 67.75 35.86 67.75C36.52 67.75 37.06 67.21 37.06 66.55V62.35C37.06 60.7 38.4 59.35 40.06 59.35H41.67V70.84H40.06C37.08 70.84 34.66 73.26 34.66 76.24V80.44C34.66 81.1 35.2 81.64 35.86 81.64C36.52 81.64 37.06 81.1 37.06 80.44V76.24C37.06 74.59 38.4 73.24 40.06 73.24H41.67V86.07H28.59V52.88H37.29C37.95 52.88 38.49 52.34 38.49 51.68C38.49 51.02 37.95 50.48 37.29 50.48H27.39C26.73 50.48 26.19 51.02 26.19 51.68V86.07H22.2C21.54 86.07 21 86.61 21 87.27C21 87.93 21.54 88.47 22.2 88.47H97.22C97.88 88.47 98.42 87.93 98.42 87.27C98.42 86.61 97.88 86.07 97.22 86.07ZM44.08 80.43V33.4H75.34V86.07H44.08V80.43Z" fill="white"/>
</g>
<defs>
<clipPath id="clip0_904_24913">
<rect width="77.42" height="57.47" fill="white" transform="translate(21 31)"/>
</clipPath>
</defs>
</svg>
