<svg width="24" height="24" viewBox="0 0 24 24" fill="none" xmlns="http://www.w3.org/2000/svg">
<mask id="mask0_3290_27990" style="mask-type:alpha" maskUnits="userSpaceOnUse" x="0" y="0" width="24" height="24">
<rect width="24" height="24" fill="#D9D9D9"/>
</mask>
<g mask="url(#mask0_3290_27990)">
<path d="M11.3 19.3008C11.1167 19.1174 11.0208 18.8841 11.0125 18.6008C11.0042 18.3174 11.0917 18.0841 11.275 17.9008L16.175 13.0008H5C4.71667 13.0008 4.47917 12.9049 4.2875 12.7133C4.09583 12.5216 4 12.2841 4 12.0008C4 11.7174 4.09583 11.4799 4.2875 11.2883C4.47917 11.0966 4.71667 11.0008 5 11.0008H16.175L11.275 6.10078C11.0917 5.91745 11.0042 5.68411 11.0125 5.40078C11.0208 5.11745 11.1167 4.88411 11.3 4.70078C11.4833 4.51745 11.7167 4.42578 12 4.42578C12.2833 4.42578 12.5167 4.51745 12.7 4.70078L19.3 11.3008C19.4 11.3841 19.4708 11.4883 19.5125 11.6133C19.5542 11.7383 19.575 11.8674 19.575 12.0008C19.575 12.1341 19.5542 12.2591 19.5125 12.3758C19.4708 12.4924 19.4 12.6008 19.3 12.7008L12.7 19.3008C12.5167 19.4841 12.2833 19.5758 12 19.5758C11.7167 19.5758 11.4833 19.4841 11.3 19.3008Z" fill="#1723A9"/>
</g>
</svg>
