<svg width="385" height="344" viewBox="0 0 385 344" fill="none" xmlns="http://www.w3.org/2000/svg">
<path d="M312 196.625C312 260.345 260.336 312 196.605 312H163.765C113.637 312 73 271.37 73 221.251C73 171.132 113.637 130.502 163.765 130.502H196.605C233.131 130.502 262.74 160.106 262.74 196.625C262.74 233.145 233.131 262.749 196.605 262.749H140.504C138.489 262.749 136.855 261.116 136.855 259.101V207.256C140.209 209.196 144.104 210.306 148.258 210.306C152.411 210.306 156.306 209.196 159.66 207.256V236.3C159.66 238.315 161.294 239.948 163.309 239.948H187.483C211.413 239.948 230.813 220.552 230.813 196.625C230.813 172.699 211.413 153.303 187.483 153.303H172.887C135.354 153.303 104.927 183.724 104.927 221.251C104.927 258.777 135.354 289.199 172.887 289.199H196.605C247.741 289.199 289.195 247.752 289.195 196.625C289.195 145.498 247.741 104.052 196.605 104.052H140.504C138.489 104.052 136.855 102.419 136.855 100.404V35.6482C136.855 33.6335 138.489 32 140.504 32H156.011C158.027 32 159.66 33.6335 159.66 35.6482V81.2508V77.6026C159.66 79.6176 161.294 81.2508 163.309 81.2508H217.586C224.891 81.2508 230.813 75.3298 230.813 68.0261C230.813 60.7223 224.891 54.8013 217.586 54.8013H174.712C172.697 54.8013 171.063 53.168 171.063 51.1531V35.6482C171.063 33.6335 172.697 32 174.712 32H226.708C246.608 32 262.74 48.1294 262.74 68.0261C262.74 78.6366 258.152 88.1756 250.852 94.7686C287.238 114.18 312 152.511 312 196.625ZM148.258 200.73C155.563 200.73 161.485 194.809 161.485 187.505C161.485 180.201 155.563 174.28 148.258 174.28C140.952 174.28 135.031 180.201 135.031 187.505C135.031 194.809 140.952 200.73 148.258 200.73Z" fill="url(#paint0_linear_2411_52754)"/>
<defs>
<linearGradient id="paint0_linear_2411_52754" x1="192.5" y1="312" x2="192.5" y2="32" gradientUnits="userSpaceOnUse">
<stop stop-color="#1488CC"/>
<stop offset="1" stop-color="#2B32B2"/>
</linearGradient>
</defs>
</svg>
