<svg width="32" height="32" viewBox="0 0 32 32" fill="none" xmlns="http://www.w3.org/2000/svg">
<g id="icon-QA">
<path id="A" d="M8.40921 24.0009C8.04921 24.0009 7.85721 23.6889 8.00121 23.3769L15.4652 7.22494C15.5372 7.08094 15.6572 6.96094 15.8732 6.96094H16.1132C16.3532 6.96094 16.4492 7.08094 16.5212 7.22494L23.9132 23.3769C24.0572 23.6889 23.8652 24.0009 23.5052 24.0009H21.4172C21.0572 24.0009 20.8892 23.8569 20.7212 23.5209L19.5452 20.9289H12.3692L11.1932 23.5209C11.0972 23.7609 10.8812 24.0009 10.4972 24.0009H8.40921ZM13.5452 18.2649H18.3692L15.9692 12.9849H15.8972L13.5452 18.2649Z" fill="#404040"/>
</g>
</svg>
