<svg width="32" height="32" viewBox="0 0 32 32" fill="none" xmlns="http://www.w3.org/2000/svg">
<g id="icon-QA">
<path id="Q" d="M6.98438 15.6249C6.98438 10.8249 10.8004 6.96094 15.6004 6.96094C20.4004 6.96094 24.2404 10.8249 24.2404 15.6249C24.2404 18.8889 22.3444 21.7689 19.5604 23.3049L22.5604 28.0329C22.7764 28.3689 22.5604 28.7529 22.1764 28.7529H19.6324C19.5364 28.7529 19.3204 28.6569 19.2484 28.5129L16.6804 24.1689C16.2964 24.2169 15.8884 24.2409 15.6004 24.2409C10.8004 24.2409 6.98438 20.4249 6.98438 15.6249ZM10.1044 15.6249C10.1044 18.6489 12.5764 21.1209 15.6004 21.1209C18.6244 21.1209 21.1204 18.6489 21.1204 15.6249C21.1204 12.6009 18.6244 10.0809 15.6004 10.0809C12.5764 10.0809 10.1044 12.6009 10.1044 15.6249Z" fill="#1723A9"/>
</g>
</svg>
