<svg width="32" height="32" viewBox="0 0 32 32" fill="none" xmlns="http://www.w3.org/2000/svg">
<rect width="32" height="32" rx="16" fill="#FFE066"/>
<mask id="mask0_3290_14365" style="mask-type:alpha" maskUnits="userSpaceOnUse" x="8" y="8" width="16" height="16">
<rect x="8" y="8" width="16" height="16" fill="#D9D9D9"/>
</mask>
<g mask="url(#mask0_3290_14365)">
<path d="M15.2474 20.8648L10.8474 16.4648C10.7807 16.3981 10.7335 16.3259 10.7057 16.2481C10.678 16.1703 10.6641 16.087 10.6641 15.9981C10.6641 15.9092 10.678 15.8259 10.7057 15.7481C10.7335 15.6703 10.7807 15.5981 10.8474 15.5315L15.2474 11.1315C15.3696 11.0092 15.5224 10.9453 15.7057 10.9398C15.8891 10.9342 16.0474 10.9981 16.1807 11.1315C16.3141 11.2537 16.3835 11.4065 16.3891 11.5898C16.3946 11.7731 16.3307 11.9315 16.1974 12.0648L12.9307 15.3315H20.3807C20.5696 15.3315 20.728 15.3953 20.8557 15.5231C20.9835 15.6509 21.0474 15.8092 21.0474 15.9981C21.0474 16.187 20.9835 16.3453 20.8557 16.4731C20.728 16.6009 20.5696 16.6648 20.3807 16.6648H12.9307L16.1974 19.9315C16.3196 20.0537 16.3835 20.2092 16.3891 20.3981C16.3946 20.587 16.3307 20.7426 16.1974 20.8648C16.0752 20.9981 15.9196 21.0648 15.7307 21.0648C15.5418 21.0648 15.3807 20.9981 15.2474 20.8648Z" fill="#141485"/>
</g>
</svg>
