<svg width="102" height="119" viewBox="0 0 102 119" fill="none" xmlns="http://www.w3.org/2000/svg">
<path d="M102 69.9658C102 97.0466 79.9509 119 52.7519 119H38.7366C17.343 119 0 101.732 0 80.4316C0 59.1309 17.343 41.8632 38.7366 41.8632H52.7519C68.3403 41.8632 80.9771 54.4451 80.9771 69.9658C80.9771 85.4865 68.3403 98.0684 52.7519 98.0684H28.8092C27.9491 98.0684 27.2519 97.3743 27.2519 96.5179V74.4836C28.6835 75.3082 30.3456 75.7801 32.1183 75.7801C33.8911 75.7801 35.5531 75.3082 36.9847 74.4836V86.8274C36.9847 87.6837 37.6819 88.3779 38.542 88.3779H48.8588C59.0718 88.3779 67.3511 80.1345 67.3511 69.9658C67.3511 59.7971 59.0718 51.5537 48.8588 51.5537H42.6298C26.6114 51.5537 13.626 64.4828 13.626 80.4316C13.626 96.3804 26.6114 109.309 42.6298 109.309H52.7519C74.5755 109.309 92.2672 91.6947 92.2672 69.9658C92.2672 48.2369 74.5756 30.6222 52.7519 30.6222H28.8092C27.9491 30.6222 27.2519 29.928 27.2519 29.0717V1.55049C27.2519 0.694231 27.9491 0 28.8092 0H35.4275C36.2876 0 36.9847 0.694231 36.9847 1.55049V20.9316V19.3811C36.9847 20.2375 37.6819 20.9316 38.542 20.9316H61.7061C64.8237 20.9316 67.3511 18.4152 67.3511 15.3111C67.3511 12.207 64.8237 9.69055 61.7061 9.69055H43.4084C42.5483 9.69055 41.8511 8.99642 41.8511 8.14007V1.55049C41.8511 0.694231 42.5483 0 43.4084 0H65.5992C74.0922 0 80.9771 6.855 80.9771 15.3111C80.9771 19.8206 79.0191 23.8746 75.9034 26.6766C91.4319 34.9267 102 51.2174 102 69.9658ZM32.1183 71.7101C35.236 71.7101 37.7634 69.1937 37.7634 66.0896C37.7634 62.9855 35.236 60.4691 32.1183 60.4691C29.0006 60.4691 26.4733 62.9855 26.4733 66.0896C26.4733 69.1937 29.0006 71.7101 32.1183 71.7101Z" fill="url(#paint0_linear_473_23988)"/>
<defs>
<linearGradient id="paint0_linear_473_23988" x1="50.9999" y1="119" x2="51" y2="-5.87476e-07" gradientUnits="userSpaceOnUse">
<stop stop-color="#1488CC"/>
<stop offset="1" stop-color="#2B32B2"/>
</linearGradient>
</defs>
</svg>
