<svg width="20" height="20" viewBox="0 0 20 20" fill="none" xmlns="http://www.w3.org/2000/svg">
<mask id="mask0_3290_5452" style="mask-type:alpha" maskUnits="userSpaceOnUse" x="0" y="0" width="20" height="20">
<rect width="20" height="20" fill="#D9D9D9"/>
</mask>
<g mask="url(#mask0_3290_5452)">
<path d="M8.1901 17.25C6.75955 16.8472 5.59288 16.059 4.6901 14.8854C3.78733 13.7118 3.33594 12.3611 3.33594 10.8333C3.33594 10.0417 3.46788 9.2882 3.73177 8.57292C3.99566 7.85764 4.37066 7.20139 4.85677 6.60417C5.00955 6.4375 5.19705 6.3507 5.41927 6.34375C5.64149 6.33681 5.84288 6.42361 6.02344 6.60417C6.17622 6.75695 6.25608 6.94445 6.26302 7.16667C6.26997 7.38889 6.19705 7.59722 6.04427 7.79167C5.71094 8.22222 5.45399 8.69445 5.27344 9.20833C5.09288 9.72222 5.0026 10.2639 5.0026 10.8333C5.0026 11.9583 5.33247 12.9618 5.99219 13.8438C6.65191 14.7257 7.5026 15.3264 8.54427 15.6458C8.72483 15.7014 8.87413 15.8056 8.99219 15.9583C9.11024 16.1111 9.16927 16.2778 9.16927 16.4583C9.16927 16.7361 9.07205 16.9549 8.8776 17.1146C8.68316 17.2743 8.45399 17.3194 8.1901 17.25ZM11.8151 17.25C11.5512 17.3194 11.322 17.2708 11.1276 17.1042C10.9332 16.9375 10.8359 16.7153 10.8359 16.4375C10.8359 16.2708 10.895 16.1111 11.013 15.9583C11.1311 15.8056 11.2804 15.7014 11.4609 15.6458C12.5026 15.3125 13.3533 14.7083 14.013 13.8333C14.6727 12.9583 15.0026 11.9583 15.0026 10.8333C15.0026 9.44445 14.5165 8.26389 13.5443 7.29167C12.572 6.31944 11.3915 5.83333 10.0026 5.83333H9.9401L10.2734 6.16667C10.4262 6.31944 10.5026 6.51389 10.5026 6.75C10.5026 6.98611 10.4262 7.18056 10.2734 7.33333C10.1207 7.48611 9.92622 7.5625 9.6901 7.5625C9.45399 7.5625 9.25955 7.48611 9.10677 7.33333L7.35677 5.58333C7.27344 5.5 7.21441 5.40972 7.17969 5.3125C7.14497 5.21528 7.1276 5.11111 7.1276 5C7.1276 4.88889 7.14497 4.78472 7.17969 4.6875C7.21441 4.59028 7.27344 4.5 7.35677 4.41667L9.10677 2.66667C9.25955 2.51389 9.45399 2.4375 9.6901 2.4375C9.92622 2.4375 10.1207 2.51389 10.2734 2.66667C10.4262 2.81944 10.5026 3.01389 10.5026 3.25C10.5026 3.48611 10.4262 3.68056 10.2734 3.83333L9.9401 4.16667H10.0026C11.8637 4.16667 13.4401 4.8125 14.7318 6.10417C16.0234 7.39583 16.6693 8.97222 16.6693 10.8333C16.6693 12.3472 16.2179 13.6944 15.3151 14.875C14.4123 16.0556 13.2457 16.8472 11.8151 17.25Z" fill="#1723A9"/>
</g>
</svg>
